<svg xmlns="http://www.w3.org/2000/svg" width="84" height="21" viewBox="0 0 84 21">
  <g fill="#0a66c2">
    <path d="M19.479,0 L1.583,0 C0.71,0 0,0.71 0,1.583 L0,19.479 C0,20.352 0.71,21.062 1.583,21.062 L19.479,21.062 
      C20.352,21.062 21.062,20.352 21.062,19.479 L21.062,1.583 C21.062,0.71 20.352,0 19.479,0 ZM6.339,17.792 
      L3.168,17.792 L3.168,7.875 L6.339,7.875 L6.339,17.792 ZM4.754,6.482 C3.725,6.482 2.89,5.647 2.89,4.618 
      C2.89,3.589 3.725,2.754 4.754,2.754 C5.783,2.754 6.618,3.589 6.618,4.618 C6.618,5.647 5.783,6.482 4.754,6.482 Z 
      M17.792,17.792 L14.621,17.792 L14.621,12.63 C14.621,11.323 14.597,9.684 12.852,9.684 
      C11.083,9.684 10.81,11.069 10.81,12.539 L10.81,17.792 L7.639,17.792 L7.639,7.875 L10.678,7.875 
      L10.678,9.293 L10.723,9.293 C11.146,8.493 12.146,7.639 13.647,7.639 
      C16.482,7.639 17.792,9.418 17.792,12.003 L17.792,17.792 Z"/>
  </g>
</svg>
